<svg xmlns="http://www.w3.org/2000/svg" xmlns:xlink="http://www.w3.org/1999/xlink" version="1.2" baseProfile="tiny" x="0px" y="0px" viewBox="0 0 100 100" xml:space="preserve"><path fill="#111" d="M90.556,34.444c-8.578-8.579-22.536-8.579-31.112,0c-5.106,5.105-7.309,12.373-6.102,19.344  C51.455,53.268,49.502,53,47.5,53c-4.752,0-9.154,1.52-12.754,4.091l-6.39-23.712c1.02-0.279,1.985-0.724,2.861-1.328  c0.971,0.53,2.048,0.799,3.126,0.799c1.671,0,3.343-0.636,4.615-1.909l5.282-5.282c0.001-0.001,0.002-0.001,0.003-0.002  s0.001-0.002,0.002-0.003l0.704-0.704c2.729-2.729,2.729-7.17,0-9.899l-10-10c-2.729-2.729-7.17-2.729-9.899,0L9.444,20.657  C5.289,24.812,3,30.336,3,36.213V80c0,9.374,7.626,17,17,17c26.994,0,52.739-11.491,70.634-31.525  c0.006-0.007,0.01-0.015,0.016-0.022C99.128,56.866,99.101,42.988,90.556,34.444z M20,93c-7.168,0-13-5.832-13-13V36.213  c0-4.809,1.872-9.329,5.272-12.728L27.878,7.878c1.17-1.17,3.073-1.17,4.243,0l10,10c0.92,0.921,1.105,2.291,0.577,3.405  l-6.991-6.991l-2.134-2.134c-0.78-0.781-2.048-0.781-2.828,0c-0.781,0.781-0.781,2.047,0,2.828l2.134,2.134L40,24.243l-1.414,1.414  l-7.122-7.122l-2.134-2.134c-0.78-0.781-2.048-0.781-2.828,0c-0.781,0.781-0.781,2.047,0,2.828l2.134,2.134l7.081,7.081  c-0.978,0.634-2.302,0.525-3.159-0.33c0,0-0.001-0.001-0.001-0.001c-0.001-0.001-0.002-0.001-0.003-0.002l-3.199-3.199l-2.134-2.134  l-2.134-2.134c-0.78-0.781-2.048-0.781-2.828,0c-0.781,0.781-0.781,2.047,0,2.828l2.134,2.134l2.134,2.134l1.515,1.515  c-0.687,0.301-1.431,0.468-2.204,0.468c-1.469,0-2.851-0.572-3.889-1.61c-0.78-0.781-2.048-0.781-2.828,0  c-0.781,0.781-0.781,2.047,0,2.828c1.418,1.418,3.208,2.323,5.148,2.644l7.127,26.448C27.741,63.963,25.5,69.223,25.5,75  c0,1.104,0.896,2,2,2s2-0.896,2-2c0-9.925,8.075-18,18-18c2.761,0,5.409,0.608,7.87,1.807c0.992,0.483,2.189,0.071,2.674-0.922  c0.129-0.266,0.19-0.546,0.197-0.823c0.004-0.085-0.005-0.17-0.011-0.256c-0.003-0.027-0.001-0.054-0.004-0.08  c-0.018-0.155-0.049-0.309-0.106-0.462c-2.437-6.579-0.807-14.034,4.152-18.992C65.672,33.873,70.192,32,75,32  s9.328,1.873,12.728,5.272c7.018,7.019,7.018,18.438,0,25.456c-0.013,0.013-0.021,0.028-0.034,0.042  c-0.014,0.015-0.03,0.025-0.044,0.04C70.514,81.996,45.856,93,20,93z"></path></svg>
